<svg viewBox="2.2 2.2 35.6 39.6" fill="none" xmlns="http://www.w3.org/2000/svg">
  <defs>
    <linearGradient id="g" x1="4" y1="22" x2="36" y2="22" gradientUnits="userSpaceOnUse">
      <stop offset="0" stop-color="#0FD6A0"/><stop offset=".5" stop-color="#0FB3DA"/><stop offset="1" stop-color="#2C6BFF"/>
    </linearGradient>
  </defs>
  <g stroke="url(#g)" stroke-width="3" stroke-linecap="round" stroke-linejoin="round">
    <path d="M20 7V37"/><path d="M20 7 7 15"/><path d="M7 15 7 30"/><path d="M7 30 20 37"/>
    <path d="M20 7 33 15"/><path d="M33 15 33 30"/><path d="M33 30 20 37"/>
    <path d="M7 15 33 30"/><path d="M33 15 7 30"/>
  </g>
  <g fill="url(#g)">
    <circle cx="20" cy="7" r="4.6"/><circle cx="20" cy="37" r="4.6"/>
    <circle cx="7" cy="15" r="4"/><circle cx="33" cy="15" r="4"/>
    <circle cx="7" cy="30" r="4"/><circle cx="33" cy="30" r="4"/><circle cx="20" cy="22" r="4.2"/>
  </g>
</svg>
